<?xml version="1.0" encoding="iso-8859-1"?>
<!-- Generator: Adobe Illustrator 19.0.0, SVG Export Plug-In . SVG Version: 6.00 Build 0)  -->
<svg version="1.1" id="Capa_1" xmlns="http://www.w3.org/2000/svg" xmlns:xlink="http://www.w3.org/1999/xlink" x="0px" y="0px"
	 viewBox="0 0 446.808 446.808" style="enable-background:new 0 0 446.808 446.808;" xml:space="preserve">
<g>
	<path d="M102.904,260.614h-24c-4.418,0-8,3.582-8,8s3.582,8,8,8h24c4.418,0,8-3.582,8-8S107.323,260.614,102.904,260.614z"/>
	<path d="M66.904,324.614c-28.673,0-52,23.327-52,52s23.327,52,52,52s52-23.327,52-52S95.577,324.614,66.904,324.614z
		 M66.904,412.614c-19.851,0-36-16.149-36-36s16.149-36,36-36s36,16.149,36,36S86.755,412.614,66.904,412.614z"/>
	<path d="M170.904,324.614c-28.673,0-52,23.327-52,52s23.327,52,52,52s52-23.327,52-52S199.577,324.614,170.904,324.614z
		 M170.904,412.614c-19.851,0-36-16.149-36-36s16.149-36,36-36s36,16.149,36,36S190.755,412.614,170.904,412.614z"/>
	<path d="M274.904,324.614c-28.673,0-52,23.327-52,52s23.327,52,52,52s52-23.327,52-52S303.577,324.614,274.904,324.614z
		 M274.904,412.614c-19.851,0-36-16.149-36-36s16.149-36,36-36s36,16.149,36,36S294.755,412.614,274.904,412.614z"/>
	<path d="M378.904,324.614c-28.673,0-52,23.327-52,52s23.327,52,52,52s52-23.327,52-52S407.577,324.614,378.904,324.614z
		 M378.904,412.614c-19.851,0-36-16.149-36-36s16.149-36,36-36s36,16.149,36,36S398.755,412.614,378.904,412.614z"/>
	<path d="M445.732,338.608c-5.515-9.534-12.962-17.598-21.676-23.812c8.706-3.605,14.849-12.189,14.849-22.183v-24v-16
		c0-22.702-15.007-40.128-38.233-44.394c-0.132-0.024-0.266-0.046-0.399-0.063l-113.237-14.938
		c-14.922-2.131-33.223-15.321-39.965-28.805l-34.394-68.788c-0.073-0.24-0.155-0.479-0.252-0.715
		c-0.249-0.606-0.57-1.159-0.939-1.667l-12.034-24.067c-0.099-0.538-0.252-1.074-0.468-1.6c-0.371-0.904-0.895-1.697-1.52-2.376
		l-9.772-19.544c-9.557-19.114-33.457-30.807-54.414-26.612c-0.049,0.01-0.098,0.021-0.146,0.031L44.636,38.509
		C23.823,42.714,6.904,63.38,6.904,84.614v183.623c-0.006,0.126-0.019,0.25-0.019,0.377c0,0.187,0.006,0.371,0.019,0.555v23.445
		c0,10.24,6.449,18.999,15.498,22.439c-8.563,6.179-15.885,14.15-21.326,23.555c-2.212,3.824-0.905,8.719,2.919,10.931
		c1.262,0.729,2.639,1.076,3.999,1.076c2.762,0,5.45-1.433,6.932-3.995c10.707-18.509,30.623-30.006,51.978-30.006h313
		c21.354,0,41.271,11.498,51.978,30.006c1.483,2.563,4.17,3.995,6.932,3.995c1.359,0,2.737-0.347,3.999-1.076
		C446.638,347.327,447.944,342.432,445.732,338.608z M30.904,300.614c-4.411,0-8-3.589-8-8v-16h24c4.418,0,8-3.582,8-8s-3.582-8-8-8
		h-24v-176c0-13.79,11.425-27.726,24.948-30.431c0.049-0.01,0.098-0.021,0.146-0.031l88.486-19.431
		c13.744-2.714,30.63,5.56,36.897,18.093l6.895,13.791l-30.731,12.608c-4.087,1.677-6.042,6.351-4.365,10.438
		c1.27,3.095,4.255,4.966,7.404,4.966c1.011,0,2.04-0.193,3.034-0.601l31.833-13.06l6.453,12.906l-30.919,12.685
		c-4.087,1.677-6.042,6.351-4.365,10.438c1.27,3.095,4.255,4.966,7.404,4.966c1.011,0,2.04-0.193,3.034-0.601l32.021-13.137
		l6.453,12.906l-31.106,12.761c-4.087,1.677-6.042,6.351-4.365,10.438c1.27,3.095,4.255,4.966,7.404,4.966
		c1.011,0,2.04-0.193,3.034-0.601l32.208-13.214l6.453,12.906l-31.294,12.838c-4.087,1.677-6.042,6.351-4.365,10.438
		c1.27,3.095,4.255,4.966,7.404,4.966c1.011,0,2.04-0.193,3.034-0.601l32.396-13.291l4.423,8.846
		c9.076,18.152,31.923,34.619,52.098,37.5l113.113,14.921c15.617,2.941,24.933,13.628,24.933,28.622v8h-288c-4.418,0-8,3.582-8,8
		s3.582,8,8,8h288v16c0,4.411-3.589,8-8,8H30.904z"/>
	<path d="M69.569,379.597c-0.518,0.464-1.401,1.017-2.665,1.017c-2.206,0-4-1.794-4-4c0-1.264,0.553-2.146,1.017-2.664
		c2.947-3.292,2.667-8.35-0.625-11.297c-3.292-2.946-8.35-2.666-11.296,0.625c-3.285,3.671-5.095,8.407-5.095,13.336
		c0,11.028,8.972,20,20,20c4.929,0,9.665-1.81,13.335-5.095c3.292-2.947,3.572-8.005,0.625-11.297
		C77.918,376.932,72.861,376.652,69.569,379.597z"/>
	<path d="M173.569,379.597c-0.518,0.464-1.401,1.017-2.665,1.017c-2.206,0-4-1.794-4-4c0-1.264,0.553-2.146,1.017-2.664
		c2.947-3.292,2.667-8.35-0.625-11.297c-3.292-2.946-8.35-2.666-11.296,0.625c-3.285,3.671-5.095,8.407-5.095,13.336
		c0,11.028,8.972,20,20,20c4.929,0,9.665-1.81,13.335-5.095c3.292-2.947,3.572-8.005,0.625-11.297
		C181.918,376.932,176.861,376.652,173.569,379.597z"/>
	<path d="M277.569,379.597c-0.518,0.464-1.401,1.017-2.665,1.017c-2.206,0-4-1.794-4-4c0-1.264,0.553-2.146,1.017-2.665
		c2.946-3.293,2.666-8.35-0.626-11.297c-3.292-2.945-8.35-2.664-11.296,0.627c-3.285,3.671-5.094,8.406-5.094,13.335
		c0,11.028,8.972,20,20,20c4.929,0,9.665-1.81,13.335-5.095c3.292-2.947,3.572-8.005,0.625-11.297
		C285.918,376.932,280.861,376.652,277.569,379.597z"/>
	<path d="M381.569,379.597c-0.518,0.464-1.401,1.017-2.665,1.017c-2.206,0-4-1.794-4-4c0-1.264,0.553-2.146,1.017-2.665
		c2.946-3.293,2.666-8.35-0.626-11.297c-3.292-2.945-8.35-2.664-11.296,0.627c-3.285,3.671-5.094,8.406-5.094,13.335
		c0,11.028,8.972,20,20,20c4.929,0,9.665-1.81,13.335-5.095c3.292-2.947,3.572-8.005,0.625-11.297
		C389.918,376.932,384.861,376.652,381.569,379.597z"/>
</g>
<g>
</g>
<g>
</g>
<g>
</g>
<g>
</g>
<g>
</g>
<g>
</g>
<g>
</g>
<g>
</g>
<g>
</g>
<g>
</g>
<g>
</g>
<g>
</g>
<g>
</g>
<g>
</g>
<g>
</g>
</svg>
